<svg width="266" height="94" viewBox="0 0 266 94" fill="none" xmlns="http://www.w3.org/2000/svg">
<path d="M33.9345 44.1784C33.9247 44.2053 33.9182 44.233 33.9149 44.2616C33.9117 44.2893 33.9117 44.3179 33.9158 44.3465C33.919 44.375 33.9255 44.4019 33.9361 44.4289C33.9459 44.4558 33.959 44.4803 33.9753 44.5039C33.9916 44.5276 34.0095 44.5488 34.0307 44.5684C34.0519 44.5872 34.0755 44.6035 34.0999 44.6174C34.1252 44.6312 34.1513 44.641 34.179 44.6484C34.2067 44.6557 34.2344 44.6598 34.2629 44.6606H48.853C48.8815 44.6598 48.9092 44.6557 48.9369 44.6484C48.9638 44.641 48.9907 44.6312 49.0152 44.6174C49.0404 44.6035 49.0641 44.5872 49.0853 44.5684C49.1056 44.5488 49.1244 44.5276 49.1407 44.5039C49.157 44.4803 49.17 44.4558 49.1798 44.4289C49.1896 44.4019 49.1969 44.375 49.2002 44.3465C49.2034 44.3179 49.2042 44.2893 49.201 44.2616C49.1977 44.233 49.1912 44.2053 49.1814 44.1784C49.0461 43.7826 48.8823 43.3991 48.6876 43.0278C48.4936 42.6574 48.2719 42.3041 48.0226 41.9679C47.7732 41.6317 47.4994 41.3167 47.2011 41.0238C46.9036 40.7301 46.5842 40.4616 46.2443 40.2176C45.9045 39.9745 45.5476 39.7582 45.1743 39.5706C44.8011 39.3821 44.4148 39.2238 44.0171 39.0957C43.6194 38.9684 43.2135 38.8713 42.8004 38.8068C42.3872 38.7424 41.9716 38.7097 41.5535 38.7097C41.1354 38.7097 40.7206 38.7424 40.3074 38.8068C39.8942 38.8713 39.4884 38.9684 39.0907 39.0957C38.693 39.2238 38.3067 39.3821 37.9335 39.5706C37.5602 39.7582 37.2033 39.9745 36.8634 40.2176C36.5236 40.4616 36.2041 40.7301 35.9059 41.0238C35.6084 41.3167 35.3346 41.6317 35.0852 41.9679C34.8358 42.3041 34.6142 42.6574 34.4202 43.0278C34.2254 43.3991 34.0608 43.7826 33.9264 44.1784" fill="white"/>
<mask id="mask0_57_10" style="mask-type:luminance" maskUnits="userSpaceOnUse" x="0" y="5" width="83" height="84">
<path d="M0 5.89697H82.1992V88.1209H0V5.89697Z" fill="white"/>
</mask>
<g mask="url(#mask0_57_10)">
<path d="M41.0573 5.89197C40.385 5.89197 39.7135 5.90829 39.0428 5.94174C38.3712 5.97438 37.7013 6.02416 37.0331 6.09025C36.364 6.15553 35.6974 6.23794 35.0332 6.33667C34.3682 6.43541 33.7065 6.55046 33.048 6.68183C32.3887 6.8132 31.7335 6.96089 31.0815 7.12409C30.4295 7.28728 29.7825 7.46679 29.1395 7.66181C28.4965 7.85765 27.8584 8.06817 27.226 8.29501C26.5936 8.52185 25.9669 8.76419 25.3459 9.02122C24.7249 9.27907 24.1112 9.5516 23.5041 9.83883C22.8961 10.1269 22.2963 10.4296 21.7039 10.7462C21.1114 11.0636 20.5271 11.3949 19.9501 11.7409C19.3739 12.0868 18.8067 12.4467 18.2476 12.8204C17.6894 13.1941 17.1401 13.5817 16.6006 13.9823C16.0611 14.383 15.5314 14.7967 15.0115 15.2242C14.4924 15.651 13.9838 16.09 13.4859 16.542C12.988 16.9941 12.5014 17.4576 12.0263 17.9333C11.5512 18.409 11.0883 18.8961 10.6368 19.3947C10.1862 19.8932 9.74689 20.4024 9.32067 20.923C8.89445 21.4428 8.48127 21.9732 8.08113 22.5133C7.68099 23.0535 7.29389 23.6035 6.92064 24.1632C6.5474 24.723 6.188 25.2909 5.84246 25.8678C5.49692 26.4455 5.16605 27.0305 4.84985 27.6238C4.53284 28.217 4.23049 28.8183 3.94363 29.4262C3.65595 30.0341 3.38376 30.6494 3.12705 31.2712C2.86952 31.8929 2.6283 32.5204 2.40174 33.1536C2.17518 33.7868 1.96493 34.4257 1.76934 35.0695C1.57456 35.7133 1.39528 36.362 1.23229 37.0148C1.06848 37.6667 0.921789 38.3236 0.790581 38.9829C0.659374 39.643 0.544466 40.3056 0.445857 40.9714C0.347248 41.6373 0.264938 42.3047 0.199742 42.9738C0.133731 43.6437 0.0840191 44.3145 0.051421 44.9868C0.018008 45.6584 0.00170898 46.3307 0.00170898 47.0039C0.00170898 47.6763 0.018008 48.3486 0.051421 49.021C0.0840191 49.6934 0.133731 50.3641 0.199742 51.0332C0.264938 51.7031 0.347248 52.3706 0.445857 53.0364C0.544466 53.7014 0.659374 54.364 0.790581 55.0241C0.921789 55.6842 1.06848 56.3403 1.23229 56.993C1.39528 57.6458 1.57456 58.2937 1.76934 58.9375C1.96493 59.5813 2.17518 60.2202 2.40174 60.8542C2.6283 61.4874 2.86952 62.1149 3.12705 62.7367C3.38376 63.3584 3.65595 63.9729 3.94363 64.5816C4.23049 65.1895 4.53284 65.79 4.84985 66.3841C5.16605 66.9773 5.49692 67.5623 5.84246 68.1392C6.188 68.7161 6.5474 69.2849 6.92064 69.8438C7.29389 70.4035 7.68099 70.9535 8.08113 71.4937C8.48127 72.0347 8.89445 72.5642 9.32067 73.0848C9.74689 73.6046 10.1862 74.1138 10.6368 74.6123C11.0883 75.1109 11.5512 75.598 12.0263 76.0737C12.5014 76.5503 12.988 77.0137 13.4859 77.4658C13.9838 77.917 14.4924 78.3568 15.0115 78.7836C15.5314 79.2103 16.0611 79.624 16.6006 80.0247C17.1401 80.4261 17.6894 80.8129 18.2476 81.1866C18.8067 81.5603 19.3739 81.9202 19.9501 82.2662C20.5271 82.6121 21.1114 82.9442 21.7039 83.2608C22.2963 83.5782 22.8961 83.881 23.5041 84.1682C24.1112 84.4562 24.7249 84.7288 25.3459 84.9858C25.9669 85.2436 26.5936 85.486 27.226 85.712C27.8584 85.9389 28.4965 86.1502 29.1395 86.3452C29.7825 86.5402 30.4295 86.7197 31.0815 86.8837C31.7335 87.0469 32.3887 87.1946 33.048 87.3252C33.7065 87.4566 34.3682 87.5716 35.0332 87.6703C35.6974 87.7691 36.364 87.8515 37.0331 87.9176C37.7013 87.9837 38.3712 88.0326 39.0428 88.0661C39.7135 88.0987 40.385 88.1159 41.0573 88.1159C41.7288 88.1159 42.4004 88.0987 43.0719 88.0661C43.7426 88.0326 44.4125 87.9837 45.0815 87.9176C45.7498 87.8515 46.4164 87.7691 47.0814 87.6703C47.7456 87.5716 48.4074 87.4566 49.0667 87.3252C49.7259 87.1946 50.3812 87.0469 51.0331 86.8837C51.6843 86.7197 52.3322 86.5402 52.9752 86.3452C53.6182 86.1502 54.2554 85.9389 54.8887 85.712C55.5211 85.486 56.1478 85.2436 56.7688 84.9858C57.3889 84.7288 58.0034 84.4562 58.6105 84.1682C59.2177 83.881 59.8183 83.5782 60.4108 83.2608C61.0032 82.9442 61.5876 82.6121 62.1637 82.2662C62.7399 81.9202 63.3079 81.5603 63.8662 81.1866C64.4252 80.8129 64.9745 80.4261 65.514 80.0247C66.0535 79.624 66.5832 79.2103 67.1023 78.7836C67.6223 78.3568 68.1308 77.917 68.6287 77.4658C69.1259 77.0137 69.6124 76.5503 70.0875 76.0737C70.5626 75.598 71.0263 75.1109 71.477 74.6123C71.9285 74.1138 72.3669 73.6046 72.7931 73.0848C73.2194 72.5642 73.6333 72.0347 74.0335 71.4937C74.4336 70.9535 74.8199 70.4035 75.1932 69.8438C75.5672 69.2849 75.9266 68.7161 76.2713 68.1392C76.6169 67.5623 76.9478 66.9773 77.2648 66.3841C77.5818 65.79 77.8833 65.1895 78.171 64.5816C78.4579 63.9729 78.73 63.3584 78.9876 62.7367C79.2443 62.1149 79.4863 61.4874 79.7129 60.8542C79.9394 60.2202 80.1497 59.5813 80.3445 58.9375C80.5401 58.2937 80.7193 57.6458 80.8823 56.993C81.0453 56.3403 81.1928 55.6842 81.324 55.0241C81.4552 54.364 81.5693 53.7014 81.668 53.0364C81.7666 52.3706 81.8489 51.7031 81.9149 51.0332C81.9809 50.3641 82.0306 49.6934 82.0632 49.021C82.0958 48.3486 82.1129 47.6763 82.1129 47.0039C82.1129 46.3307 82.0958 45.6584 82.0632 44.9868C82.0306 44.3145 81.9809 43.6437 81.9149 42.9738C81.8489 42.3047 81.7666 41.6373 81.668 40.9714C81.5693 40.3056 81.4552 39.643 81.324 38.9829C81.1928 38.3236 81.0453 37.6667 80.8823 37.0148C80.7193 36.362 80.5401 35.7133 80.3445 35.0695C80.1497 34.4257 79.9394 33.7868 79.7129 33.1536C79.4863 32.5204 79.2443 31.8929 78.9876 31.2712C78.73 30.6494 78.4579 30.0341 78.171 29.4262C77.8833 28.8183 77.5818 28.217 77.2648 27.6238C76.9478 27.0305 76.6169 26.4455 76.2713 25.8678C75.9266 25.2909 75.5672 24.723 75.1932 24.1632C74.8199 23.6035 74.4336 23.0535 74.0335 22.5133C73.6333 21.9732 73.2194 21.4428 72.7931 20.923C72.3669 20.4024 71.9285 19.8932 71.477 19.3947C71.0263 18.8961 70.5626 18.409 70.0875 17.9333C69.6124 17.4576 69.1259 16.9941 68.6287 16.542C68.1308 16.09 67.6223 15.651 67.1023 15.2242C66.5832 14.7967 66.0535 14.383 65.514 13.9823C64.9745 13.5817 64.4252 13.1941 63.8662 12.8204C63.3079 12.4467 62.7399 12.0868 62.1637 11.7409C61.5876 11.3949 61.0032 11.0636 60.4108 10.7462C59.8183 10.4296 59.2177 10.1269 58.6105 9.83883C58.0034 9.5516 57.3889 9.27907 56.7688 9.02122C56.1478 8.76419 55.5211 8.52185 54.8887 8.29501C54.2554 8.06817 53.6182 7.85765 52.9752 7.66181C52.3322 7.46679 51.6843 7.28728 51.0331 7.12409C50.3812 6.96089 49.7259 6.8132 49.0667 6.68183C48.4074 6.55046 47.7456 6.43541 47.0814 6.33667C46.4164 6.23794 45.7498 6.15553 45.0815 6.09025C44.4125 6.02416 43.7426 5.97438 43.0719 5.94174C42.4004 5.90829 41.7288 5.89197 41.0573 5.89197ZM31.4384 58.9245H26.9342C26.8144 58.9253 26.7109 58.8845 26.6237 58.8029C26.6237 58.8029 18.9893 49.0806 18.8939 48.9867C18.8703 48.9606 18.8417 48.9443 18.8075 48.9361C18.7733 48.9288 18.7399 48.9321 18.7073 48.9459C18.6755 48.9598 18.6502 48.981 18.6315 49.0112C18.6136 49.0414 18.6054 49.074 18.6079 49.1083V58.5067C18.6062 58.5638 18.594 58.6176 18.5712 58.6699C18.5484 58.7221 18.5158 58.767 18.475 58.8061C18.4343 58.8453 18.387 58.8755 18.334 58.8959C18.2811 58.9163 18.2265 58.9261 18.1694 58.9245H14.6179C14.5608 58.9261 14.5062 58.9163 14.4532 58.8959C14.4003 58.8755 14.353 58.8453 14.3122 58.8061C14.2707 58.767 14.2389 58.7221 14.2161 58.6699C14.1925 58.6176 14.1802 58.5638 14.1794 58.5067V35.4628C14.1802 35.4057 14.1925 35.351 14.2153 35.2996C14.2381 35.2474 14.2707 35.2017 14.3114 35.1625C14.353 35.1225 14.3994 35.0932 14.4524 35.072C14.5054 35.0516 14.5608 35.0418 14.6179 35.0434H18.1694C18.2265 35.0418 18.2811 35.0516 18.334 35.072C18.387 35.0932 18.4343 35.1225 18.4758 35.1625C18.5166 35.2017 18.5484 35.2474 18.572 35.2996C18.5948 35.351 18.607 35.4057 18.6079 35.4628V42.2925C18.6103 42.3398 18.6331 42.3725 18.6779 42.3904C18.7219 42.4075 18.7611 42.4002 18.7953 42.3659L25.5838 35.1666C25.671 35.0842 25.7745 35.0434 25.8943 35.0434H30.4597C30.533 35.0434 30.5999 35.0638 30.661 35.1038C30.7221 35.1446 30.7669 35.1976 30.7963 35.2653C30.8248 35.3322 30.8329 35.4016 30.8199 35.4742C30.8077 35.546 30.7759 35.6089 30.7262 35.6619L30.3978 36.0087L21.5889 45.4446C21.5474 45.4829 21.5156 45.5278 21.4936 45.5792C21.4716 45.6306 21.4602 45.6845 21.4602 45.7408C21.4602 45.7971 21.4716 45.8509 21.4936 45.9024C21.5156 45.9538 21.5474 45.9986 21.5889 46.037L31.8541 57.9575C31.938 58.0391 31.9918 58.137 32.0138 58.2521C32.0366 58.3671 32.0244 58.4789 31.9779 58.5858C31.9315 58.6935 31.8581 58.7776 31.7587 58.8396C31.6585 58.9016 31.5509 58.9293 31.4336 58.9228M53.4935 48.5624C53.491 48.6032 53.4812 48.6424 53.4641 48.6799C53.447 48.7166 53.4234 48.7501 53.394 48.7778C53.3647 48.8064 53.3305 48.8284 53.293 48.8447C53.2555 48.8603 53.2164 48.8692 53.1748 48.87H34.0267C33.977 48.8717 33.9297 48.8839 33.8857 48.9076C33.8417 48.9304 33.8042 48.9622 33.7749 49.0022C33.7448 49.0422 33.7252 49.0863 33.7154 49.1352C33.7056 49.1842 33.7073 49.2332 33.7195 49.2813C33.9094 49.9259 34.1734 50.5387 34.5116 51.1189C34.8498 51.6998 35.2524 52.231 35.7202 52.7133C35.9101 52.9009 36.1081 53.0796 36.3143 53.2494C36.5205 53.4183 36.7348 53.5782 36.9557 53.7275C37.1773 53.8769 37.4047 54.0156 37.6386 54.1437C37.8733 54.2718 38.1129 54.3885 38.3574 54.4945C38.6027 54.6006 38.8521 54.6945 39.1055 54.7769C39.3598 54.8601 39.6165 54.9303 39.8773 54.989C40.1372 55.0478 40.3996 55.0935 40.6645 55.1277C40.9294 55.162 41.195 55.184 41.4615 55.193C41.728 55.202 41.9945 55.1995 42.261 55.1832C42.5275 55.1677 42.7923 55.14 43.0564 55.1C43.3204 55.0592 43.582 55.007 43.8404 54.9425C44.0995 54.878 44.3546 54.8013 44.6064 54.7124C44.8582 54.6243 45.1052 54.5239 45.348 54.4129C45.5909 54.3012 45.8272 54.1788 46.0587 54.0449C46.2893 53.9111 46.5142 53.7675 46.7318 53.6125C46.9494 53.4583 47.1597 53.2934 47.3618 53.1196C47.8776 52.6203 48.3275 52.067 48.7113 51.4599C48.7521 51.3996 48.805 51.3522 48.8686 51.3188C48.933 51.2845 49.0015 51.2674 49.0748 51.2682L52.6035 51.7806C52.628 51.7806 52.6516 51.7839 52.6753 51.7896C52.6989 51.7953 52.7209 51.8043 52.7421 51.8157C52.7641 51.8271 52.7836 51.841 52.8016 51.8573C52.8187 51.8736 52.835 51.8916 52.848 51.912C52.8611 51.9324 52.8717 51.9536 52.8798 51.9765C52.888 51.9993 52.8928 52.023 52.8953 52.0474C52.8977 52.0711 52.8969 52.0956 52.8928 52.1192C52.8888 52.1437 52.8823 52.1666 52.8733 52.1886C52.5245 52.985 52.0836 53.7259 51.549 54.4113C51.0144 55.0967 50.404 55.7046 49.717 56.2358C49.4383 56.4692 49.1506 56.6887 48.8531 56.8935C41.3328 62.1018 29.5616 57.8049 29.5616 46.9378C29.5567 46.5608 29.5689 46.1855 29.5991 45.8093C29.6293 45.434 29.6773 45.0611 29.7425 44.6898C29.8077 44.3186 29.89 43.9514 29.9903 43.5883C30.0897 43.2251 30.2062 42.8669 30.3399 42.5153C30.4735 42.1628 30.6235 41.8176 30.7889 41.4798C30.9552 41.1412 31.1361 40.8115 31.3333 40.4908C31.5305 40.1693 31.7416 39.8584 31.9682 39.5574C32.1939 39.2563 32.4335 38.9666 32.687 38.6883C32.9404 38.4093 33.2061 38.1433 33.4848 37.8903C33.7635 37.6366 34.0528 37.3967 34.3535 37.1706C34.6551 36.9446 34.9656 36.7333 35.2866 36.5366C35.6069 36.34 35.937 36.1588 36.2744 35.9924C36.6126 35.8267 36.9573 35.6774 37.3094 35.5444C37.6614 35.4114 38.0184 35.2947 38.381 35.1952C38.7445 35.0956 39.1112 35.0132 39.4812 34.9479C39.852 34.8835 40.2252 34.8361 40.6001 34.8059C40.975 34.7766 41.3507 34.7643 41.7272 34.77C42.1029 34.7758 42.4778 34.7986 42.8518 34.8394C43.2259 34.881 43.5975 34.9389 43.9659 35.0148C44.3342 35.0907 44.6985 35.1837 45.0579 35.2947C45.4181 35.4049 45.7718 35.5313 46.1198 35.675C46.4678 35.8194 46.8076 35.9785 47.1401 36.1547C47.4734 36.3302 47.797 36.5211 48.1123 36.7276C48.4269 36.934 48.7309 37.1543 49.0251 37.3893C49.3193 37.6243 49.6021 37.8724 49.8726 38.1343C50.1432 38.3954 50.4015 38.6696 50.646 38.9552C50.8913 39.2416 51.1228 39.5378 51.3396 39.8454C51.5563 40.153 51.7584 40.4704 51.9459 40.7976C52.1333 41.124 52.3053 41.4586 52.4609 41.8021C52.6166 42.1448 52.7559 42.494 52.879 42.8506C53.002 43.2064 53.108 43.5679 53.1968 43.9334C53.2857 44.2998 53.3574 44.6694 53.412 45.0415C53.4959 45.5923 53.5432 46.1463 53.553 46.7028C53.5693 47.2716 53.5252 47.9904 53.5032 48.5624M58.8803 58.4512C58.8004 58.5964 58.6888 58.7115 58.5453 58.7963C58.4027 58.8804 58.2479 58.9228 58.0825 58.9228H54.4739C54.4266 58.9245 54.3801 58.9204 54.3337 58.9106C54.2872 58.9008 54.2432 58.8853 54.2 58.8641C54.1576 58.8429 54.1185 58.8167 54.0827 58.7857C54.0468 58.7555 54.015 58.7205 53.9881 58.6813C53.9604 58.6429 53.9384 58.6013 53.9213 58.5564C53.905 58.5124 53.8936 58.4667 53.8879 58.4194C53.883 58.372 53.883 58.3255 53.8895 58.2782C53.896 58.2309 53.9083 58.186 53.9254 58.1419L59.2446 49.1385C59.3073 49.0014 59.3073 48.8651 59.2446 48.7289L51.4854 35.7076C51.4659 35.675 51.452 35.6391 51.4414 35.6023C51.4316 35.5648 51.4268 35.5273 51.4268 35.4889C51.4268 35.4506 51.4316 35.413 51.4422 35.3755C51.452 35.3388 51.4659 35.3037 51.4854 35.2702C51.5042 35.2368 51.5278 35.2066 51.5547 35.1797C51.5816 35.1519 51.6117 35.1291 51.6452 35.1095C51.6778 35.0907 51.7128 35.076 51.7503 35.0654C51.787 35.0556 51.8244 35.0499 51.8627 35.0499H55.768C55.8552 35.0491 55.9359 35.072 56.0092 35.1185C56.0826 35.1658 56.138 35.2286 56.1738 35.3086L61.6585 44.259C61.7326 44.4238 61.8801 44.4238 61.9543 44.259L67.1488 35.2441C67.1757 35.1846 67.2164 35.1372 67.2718 35.1013C67.3273 35.0662 67.3867 35.0491 67.4528 35.0499H71.3743C71.4631 35.0507 71.5291 35.0891 71.5732 35.1666C71.6172 35.2433 71.6163 35.3208 71.5715 35.3967C71.5006 35.5191 60.7001 55.1457 58.877 58.4594" fill="white"/>
</g>
<path d="M98.3312 53.1973C97.2546 53.2201 96.2302 53.0006 95.2572 52.5388C94.826 52.3299 94.4341 52.0631 94.082 51.7375C93.7308 51.4119 93.4333 51.0423 93.1913 50.6286C92.9297 50.1659 92.73 49.678 92.5906 49.1655C92.4521 48.6523 92.3779 48.1301 92.3698 47.5989C92.3535 47.3557 92.3453 47.035 92.3453 46.6368C92.3453 46.2395 92.3535 45.9106 92.3698 45.6503C92.3869 44.5708 92.6607 43.5614 93.1913 42.6214C93.4333 42.2078 93.7308 41.8381 94.082 41.5125C94.4341 41.187 94.826 40.9193 95.2572 40.7104C96.2302 40.2494 97.2546 40.0299 98.3312 40.0528C99.2423 40.0291 100.125 40.1752 100.98 40.4901C101.65 40.7423 102.253 41.107 102.786 41.5852C103.223 41.9785 103.576 42.437 103.844 42.9601C104.059 43.3681 104.185 43.8022 104.22 44.2624C104.231 44.3431 104.222 44.4207 104.192 44.4966C104.164 44.5724 104.118 44.6361 104.056 44.6883C103.936 44.7985 103.794 44.8531 103.631 44.8531H101.496C101.355 44.8621 101.229 44.8213 101.12 44.7316C101.012 44.6247 100.928 44.5031 100.865 44.366C100.78 44.0926 100.655 43.8389 100.492 43.6039C100.327 43.3697 100.131 43.1649 99.904 42.9911C99.4395 42.7014 98.9326 42.5676 98.3849 42.5904C98.0231 42.5725 97.6735 42.6304 97.3361 42.7642C96.9995 42.8981 96.7045 43.0955 96.4527 43.3566C96.1821 43.6993 95.9808 44.0788 95.848 44.4941C95.7152 44.9103 95.6597 45.3362 95.6809 45.7719C95.6483 46.3398 95.6483 46.9078 95.6809 47.4757C95.6565 47.9147 95.7103 48.343 95.8415 48.7625C95.9735 49.1819 96.1748 49.5637 96.4462 49.9097C96.6996 50.1676 96.9954 50.3618 97.332 50.4931C97.6686 50.6253 98.0174 50.6816 98.3784 50.6645C98.931 50.6906 99.4411 50.5568 99.9089 50.263C100.368 49.9064 100.684 49.4511 100.858 48.8963C100.921 48.7592 101.006 48.6376 101.113 48.5315C101.223 48.4418 101.348 48.401 101.489 48.41H103.624C103.787 48.41 103.929 48.4646 104.05 48.574C104.112 48.6262 104.157 48.6907 104.186 48.7665C104.215 48.8416 104.224 48.9199 104.213 48.9999C104.187 49.341 104.11 49.6698 103.984 49.9872C103.822 50.3936 103.603 50.7673 103.327 51.1067C103.002 51.5123 102.625 51.8615 102.197 52.1545C101.69 52.4963 101.142 52.7517 100.554 52.9207C99.8274 53.1271 99.0866 53.2242 98.3312 53.212" fill="white"/>
<path d="M113.546 53.1974C112.402 53.2341 111.313 53.0072 110.278 52.516C109.853 52.3047 109.468 52.0354 109.124 51.7074C108.781 51.3802 108.492 51.0089 108.26 50.5936C107.774 49.6895 107.51 48.7242 107.47 47.6977C107.455 47.4007 107.447 47.0433 107.447 46.6255C107.447 46.2077 107.455 45.8512 107.472 45.555C107.511 44.5187 107.785 43.5493 108.293 42.646C108.534 42.2348 108.827 41.8668 109.175 41.542C109.522 41.2164 109.908 40.948 110.334 40.735C111.353 40.2479 112.426 40.021 113.555 40.0545C114.683 40.021 115.757 40.2479 116.775 40.735C117.199 40.9488 117.584 41.2181 117.93 41.5436C118.276 41.8692 118.569 42.2372 118.808 42.6477C119.315 43.5509 119.589 44.5211 119.629 45.5566C119.645 45.8487 119.653 46.2053 119.654 46.6272C119.655 47.0498 119.646 47.4064 119.629 47.6977C119.588 48.7242 119.325 49.6895 118.839 50.5936C118.606 51.0097 118.315 51.381 117.969 51.7082C117.623 52.0354 117.236 52.3047 116.808 52.5144C115.774 53.0056 114.684 53.2324 113.54 53.1957M113.54 50.7862C113.726 50.7968 113.911 50.7862 114.095 50.7552C114.279 50.7241 114.457 50.6727 114.63 50.6018C114.802 50.5308 114.965 50.441 115.118 50.3341C115.27 50.2264 115.409 50.1032 115.533 49.9637C115.793 49.6218 115.99 49.2464 116.123 48.8384C116.258 48.4296 116.321 48.011 116.315 47.581C116.33 47.3379 116.338 47.0213 116.34 46.632C116.341 46.2428 116.333 45.9238 116.315 45.6749C116.321 45.2457 116.258 44.8263 116.124 44.4183C115.99 44.0095 115.795 43.6342 115.536 43.2906C115.412 43.1511 115.274 43.0279 115.122 42.9202C114.969 42.8117 114.806 42.7227 114.634 42.6509C114.462 42.5799 114.283 42.5293 114.099 42.4983C113.915 42.4673 113.73 42.4575 113.543 42.4681C113.356 42.4575 113.171 42.4673 112.987 42.4983C112.803 42.5285 112.625 42.5799 112.452 42.6509C112.28 42.7219 112.117 42.8117 111.965 42.9202C111.812 43.0279 111.674 43.1511 111.55 43.2906C111.291 43.6342 111.095 44.0095 110.962 44.4183C110.828 44.8263 110.765 45.2457 110.771 45.6749C110.754 45.9189 110.746 46.2347 110.746 46.6239C110.746 47.0131 110.754 47.3297 110.771 47.5729C110.763 48.0053 110.826 48.4272 110.96 48.8384C111.094 49.2497 111.291 49.6275 111.553 49.9718C111.678 50.1114 111.816 50.2346 111.969 50.3423C112.121 50.45 112.284 50.5389 112.456 50.6107C112.629 50.6817 112.807 50.7323 112.991 50.7633C113.175 50.7951 113.36 50.8049 113.546 50.7943" fill="white"/>
<path d="M124.141 52.9534C123.98 52.9583 123.842 52.9036 123.728 52.7893C123.614 52.6743 123.56 52.5364 123.564 52.3748V40.8884C123.56 40.7268 123.614 40.5881 123.728 40.4739C123.842 40.3596 123.98 40.305 124.141 40.309H126.136C126.297 40.305 126.435 40.3596 126.55 40.4739C126.663 40.5881 126.718 40.7268 126.713 40.8884V41.8847C127.164 41.3413 127.703 40.9072 128.33 40.584C129.101 40.203 129.917 40.0267 130.777 40.0545C131.228 40.043 131.674 40.0944 132.112 40.2079C132.549 40.3221 132.963 40.4935 133.353 40.7236C133.721 40.9488 134.049 41.2221 134.337 41.5428C134.625 41.8643 134.861 42.2201 135.046 42.6101C135.47 43.537 135.669 44.5105 135.64 45.5305V52.3683C135.645 52.5299 135.591 52.6678 135.477 52.7828C135.363 52.8971 135.226 52.9517 135.064 52.9468H132.911C132.751 52.9517 132.613 52.8971 132.499 52.7828C132.385 52.6686 132.33 52.5299 132.335 52.3683V45.6749C132.358 45.2759 132.31 44.8858 132.191 44.504C132.071 44.1229 131.888 43.7745 131.642 43.4603C131.514 43.3216 131.373 43.2 131.219 43.0931C131.064 42.9871 130.9 42.8989 130.725 42.8304C130.551 42.761 130.371 42.7113 130.186 42.6827C130 42.6542 129.814 42.646 129.627 42.659C129.249 42.6411 128.884 42.7023 128.532 42.8426C128.18 42.9822 127.873 43.1886 127.61 43.462C127.345 43.768 127.147 44.1123 127.017 44.4958C126.886 44.8785 126.833 45.2726 126.856 45.6765V52.3699C126.861 52.5315 126.806 52.6694 126.692 52.7844C126.578 52.8987 126.44 52.9534 126.278 52.9485L124.141 52.9534Z" fill="white"/>
<path d="M144.022 52.9533C143.807 52.9721 143.616 52.9109 143.451 52.7714C143.327 52.6457 143.225 52.5037 143.147 52.3454L138.604 41.0524C138.573 40.983 138.556 40.9096 138.554 40.8337C138.554 40.6836 138.609 40.5579 138.719 40.4559C138.82 40.3458 138.945 40.2911 139.094 40.2911H141.065C141.235 40.2805 141.381 40.3351 141.502 40.4559C141.588 40.5432 141.653 40.6444 141.697 40.7595L144.929 49.3027L148.163 40.7595C148.205 40.6444 148.271 40.5432 148.356 40.4559C148.478 40.3351 148.623 40.2805 148.793 40.2911H150.779C150.92 40.2952 151.037 40.3498 151.132 40.4559C151.241 40.5579 151.296 40.6836 151.296 40.8337C151.295 40.9071 151.287 40.9806 151.271 41.0524L146.703 52.3454C146.637 52.5086 146.54 52.6506 146.412 52.7714C146.242 52.9101 146.047 52.9705 145.829 52.9533H144.022Z" fill="white"/>
<path d="M159.698 53.1973C159.307 53.2169 158.92 53.1981 158.534 53.1394C158.148 53.0814 157.771 52.986 157.405 52.8521C157.038 52.7183 156.688 52.5494 156.356 52.3454C156.022 52.1414 155.714 51.9056 155.427 51.6396C155.15 51.3426 154.904 51.0211 154.689 50.6768C154.473 50.3316 154.293 49.9701 154.147 49.5899C154.001 49.2105 153.893 48.8204 153.822 48.4198C153.752 48.02 153.719 47.6161 153.727 47.2097C153.71 47.0449 153.702 46.8409 153.702 46.5896C153.7 46.3905 153.708 46.1922 153.727 45.9939C153.761 44.8744 154.04 43.8202 154.564 42.8304C154.8 42.3955 155.093 42.003 155.442 41.6537C155.792 41.3037 156.184 41.0108 156.618 40.7749C157.094 40.5261 157.594 40.3408 158.117 40.2193C158.639 40.0977 159.169 40.043 159.706 40.0561C160.284 40.0373 160.853 40.0977 161.415 40.2372C161.976 40.3767 162.508 40.5905 163.01 40.8786C163.451 41.1462 163.842 41.4734 164.184 41.8586C164.527 42.2445 164.805 42.6721 165.02 43.1413C165.497 44.2053 165.724 45.3207 165.7 46.4876V46.9992C165.705 47.1607 165.649 47.2986 165.535 47.4137C165.414 47.5304 165.268 47.585 165.098 47.5777H157.024V47.7719C157.034 48.3162 157.144 48.84 157.352 49.3427C157.545 49.8094 157.845 50.1937 158.25 50.4932C158.457 50.6417 158.683 50.7535 158.926 50.8285C159.17 50.9036 159.418 50.9371 159.673 50.9305C160.071 50.9436 160.454 50.875 160.822 50.7233C161.099 50.6058 161.351 50.4475 161.576 50.2484C161.728 50.1162 161.866 49.9701 161.989 49.811C162.08 49.6666 162.197 49.5491 162.342 49.4577C162.471 49.4104 162.605 49.39 162.742 49.3965H164.831C164.984 49.3916 165.118 49.4398 165.232 49.5426C165.283 49.5891 165.321 49.6437 165.345 49.709C165.368 49.7735 165.375 49.8396 165.365 49.9081C165.313 50.259 165.18 50.5756 164.964 50.8571C164.663 51.2814 164.302 51.6461 163.882 51.9521C163.343 52.3454 162.756 52.6408 162.12 52.8399C161.333 53.0888 160.527 53.2063 159.703 53.194M157.029 45.5272H162.399V45.4545C162.412 44.8801 162.305 44.3277 162.081 43.7989C161.88 43.3363 161.573 42.9634 161.157 42.6786C160.715 42.3889 160.228 42.251 159.699 42.2665C159.17 42.251 158.684 42.3889 158.241 42.6786C157.827 42.9617 157.523 43.3355 157.33 43.7989C157.114 44.3293 157.013 44.8809 157.026 45.4529L157.029 45.5272Z" fill="white"/>
<path d="M171.776 57.5775C171.643 57.5791 171.529 57.5326 171.436 57.4363C171.339 57.3441 171.29 57.2307 171.29 57.096C171.29 57.0348 171.293 56.9745 171.301 56.9133C171.317 56.839 171.345 56.7697 171.387 56.706L173.282 52.2035L168.617 41.1854C168.566 41.0777 168.534 40.9643 168.52 40.8451C168.533 40.7015 168.588 40.5767 168.683 40.469C168.78 40.3572 168.901 40.3025 169.049 40.3042H171.019C171.185 40.2919 171.33 40.3401 171.456 40.451C171.549 40.5416 171.621 40.6469 171.674 40.7668L174.911 48.7209L178.241 40.7595C178.288 40.6322 178.36 40.5228 178.46 40.4306C178.588 40.3303 178.734 40.2854 178.896 40.2976H180.841C180.978 40.2993 181.095 40.3482 181.193 40.4445C181.3 40.5326 181.354 40.646 181.357 40.7848C181.348 40.9202 181.316 41.0499 181.26 41.174L174.378 57.1075C174.316 57.2323 174.236 57.3417 174.135 57.4363C174.006 57.5375 173.86 57.5815 173.698 57.5693L171.776 57.5775Z" fill="white"/>
<path d="M187.356 53.1973C186.556 53.2104 185.795 53.0456 185.071 52.7037C184.419 52.396 183.882 51.9489 183.46 51.363C183.264 51.0889 183.115 50.7902 183.013 50.4679C182.912 50.1456 182.862 49.8151 182.866 49.4773C182.858 49.2113 182.883 48.9494 182.94 48.6899C182.998 48.4304 183.086 48.1824 183.205 47.9449C183.325 47.7075 183.472 47.4888 183.645 47.2881C183.819 47.0873 184.014 46.9111 184.232 46.7585C184.775 46.3905 185.352 46.0918 185.967 45.8634C186.581 45.6349 187.214 45.4831 187.865 45.4089L191.194 44.9152V44.4044C191.211 44.1188 191.177 43.8398 191.089 43.568C191.002 43.2963 190.867 43.0499 190.686 42.8288C190.446 42.6174 190.174 42.4632 189.869 42.3661C189.565 42.269 189.254 42.2372 188.936 42.2698C188.426 42.247 187.953 42.3653 187.514 42.6231C187.146 42.8533 186.872 43.1658 186.692 43.5607C186.636 43.6611 186.558 43.7394 186.457 43.7965C186.357 43.8536 186.249 43.8797 186.134 43.8765H184.22C184.065 43.8879 183.931 43.8389 183.82 43.7296C183.723 43.6178 183.679 43.4881 183.687 43.3404C183.727 43.0018 183.833 42.686 184.002 42.3914C184.237 41.9679 184.545 41.6064 184.925 41.3078C185.418 40.9186 185.96 40.6224 186.554 40.4192C187.335 40.1565 188.137 40.0349 188.96 40.0545C189.844 40.0324 190.707 40.1581 191.548 40.4306C192.187 40.6403 192.751 40.9765 193.238 41.4408C193.661 41.8618 193.969 42.3555 194.161 42.921C194.358 43.5044 194.455 44.105 194.452 44.721V52.3634C194.456 52.525 194.402 52.6629 194.288 52.7779C194.173 52.8913 194.035 52.9468 193.874 52.9419H191.903C191.737 52.9517 191.595 52.8971 191.478 52.7779C191.366 52.6621 191.311 52.5242 191.314 52.3634V51.4144C191.077 51.749 190.794 52.0362 190.463 52.2777C190.064 52.5674 189.631 52.7869 189.162 52.9354C188.574 53.1174 187.972 53.2022 187.356 53.1908M188.177 50.8783C188.722 50.8857 189.236 50.7641 189.721 50.5136C190.205 50.2517 190.57 49.8747 190.814 49.3818C191.106 48.7699 191.24 48.1252 191.215 47.448V46.9364L188.784 47.3264C188.021 47.4047 187.309 47.6397 186.65 48.0314C186.545 48.0926 186.449 48.166 186.364 48.2517C186.278 48.3366 186.204 48.4321 186.142 48.5357C186.081 48.6401 186.033 48.7511 185.999 48.867C185.966 48.9837 185.948 49.1028 185.945 49.2235C185.941 49.3916 185.968 49.5532 186.024 49.7107C186.081 49.8682 186.164 50.0101 186.273 50.1366C186.504 50.3969 186.783 50.5838 187.113 50.6956C187.458 50.8188 187.815 50.88 188.182 50.8783" fill="white"/>
<path d="M199.361 52.9534C199.199 52.9583 199.061 52.9036 198.947 52.7893C198.833 52.6743 198.778 52.5364 198.782 52.3748V40.8884C198.778 40.7268 198.833 40.5881 198.947 40.4739C199.061 40.3596 199.199 40.305 199.361 40.309H201.354C201.515 40.305 201.653 40.3596 201.768 40.4739C201.881 40.5881 201.937 40.7268 201.932 40.8884V41.8847C202.383 41.3413 202.921 40.9072 203.548 40.584C204.32 40.203 205.135 40.0267 205.995 40.0545C206.448 40.043 206.892 40.0944 207.33 40.2079C207.768 40.3221 208.182 40.4935 208.571 40.7236C208.94 40.9488 209.267 41.2221 209.556 41.5428C209.843 41.8643 210.081 42.2201 210.265 42.6101C210.689 43.537 210.887 44.5105 210.86 45.5305V52.3683C210.864 52.5299 210.809 52.6678 210.695 52.7828C210.581 52.8971 210.444 52.9517 210.283 52.9468H208.13C207.969 52.9517 207.831 52.8971 207.718 52.7828C207.603 52.6686 207.549 52.5299 207.553 52.3683V45.6749C207.577 45.2759 207.529 44.8858 207.409 44.504C207.29 44.1229 207.107 43.7745 206.861 43.4603C206.734 43.3216 206.593 43.2 206.438 43.0931C206.283 42.9871 206.118 42.8989 205.944 42.8304C205.769 42.761 205.589 42.7113 205.404 42.6827C205.219 42.6542 205.033 42.646 204.845 42.659C204.467 42.6411 204.102 42.7023 203.751 42.8426C203.399 42.9822 203.092 43.1886 202.829 43.462C202.563 43.768 202.366 44.1123 202.236 44.4958C202.105 44.8785 202.052 45.2726 202.075 45.6765V52.3699C202.079 52.5315 202.025 52.6694 201.911 52.7844C201.797 52.8987 201.659 52.9534 201.497 52.9485L199.361 52.9534Z" fill="white"/>
<path d="M220.627 53.1973C219.551 53.2201 218.526 53.0006 217.553 52.5388C217.122 52.3299 216.731 52.0631 216.378 51.7375C216.026 51.4119 215.729 51.0423 215.487 50.6286C215.226 50.1659 215.026 49.678 214.887 49.1655C214.748 48.6523 214.674 48.1301 214.666 47.5989C214.649 47.3557 214.641 47.035 214.641 46.6368C214.641 46.2395 214.649 45.9106 214.666 45.6503C214.683 44.5708 214.957 43.5614 215.487 42.6214C215.73 42.2078 216.026 41.8381 216.378 41.5125C216.731 41.187 217.122 40.9193 217.553 40.7104C218.526 40.2494 219.551 40.0299 220.627 40.0528C221.538 40.0291 222.421 40.1752 223.276 40.4901C223.946 40.7423 224.548 41.107 225.082 41.5852C225.519 41.9785 225.872 42.437 226.14 42.9601C226.356 43.3681 226.481 43.8022 226.516 44.2624C226.527 44.3431 226.518 44.4207 226.489 44.4966C226.459 44.5724 226.414 44.6361 226.352 44.6883C226.231 44.7985 226.089 44.8531 225.926 44.8531H223.792C223.65 44.8621 223.525 44.8213 223.416 44.7316C223.309 44.6247 223.224 44.5031 223.161 44.366C223.076 44.0926 222.951 43.8389 222.787 43.6039C222.623 43.3697 222.428 43.1649 222.2 42.9911C221.735 42.7014 221.229 42.5676 220.681 42.5904C220.319 42.5725 219.969 42.6304 219.633 42.7642C219.295 42.8981 219 43.0955 218.748 43.3566C218.479 43.6993 218.277 44.0788 218.144 44.4941C218.012 44.9103 217.955 45.3362 217.977 45.7719C217.944 46.3398 217.944 46.9078 217.977 47.4757C217.952 47.9147 218.006 48.343 218.138 48.7625C218.27 49.1819 218.471 49.5637 218.742 49.9097C218.996 50.1676 219.291 50.3618 219.628 50.4931C219.965 50.6253 220.314 50.6816 220.675 50.6645C221.227 50.6906 221.737 50.5568 222.205 50.263C222.663 49.9064 222.98 49.4511 223.155 48.8963C223.218 48.7592 223.302 48.6376 223.409 48.5315C223.518 48.4418 223.644 48.401 223.785 48.41H225.92C226.083 48.41 226.225 48.4646 226.345 48.574C226.407 48.6262 226.453 48.6907 226.482 48.7665C226.512 48.8416 226.521 48.9199 226.51 48.9999C226.483 49.341 226.406 49.6698 226.279 49.9872C226.118 50.3936 225.9 50.7673 225.622 51.1067C225.298 51.5123 224.922 51.8615 224.493 52.1545C223.986 52.4963 223.438 52.7517 222.851 52.9207C222.124 53.1271 221.382 53.2242 220.627 53.212" fill="white"/>
<path d="M230.736 38.1997C230.571 38.2062 230.429 38.1515 230.312 38.0349C230.195 37.9165 230.14 37.7746 230.147 37.6089V35.8676C230.145 35.7069 230.2 35.569 230.312 35.4531C230.428 35.334 230.57 35.2793 230.736 35.2883H232.949C233.118 35.2818 233.263 35.3364 233.386 35.4531C233.5 35.5674 233.554 35.7061 233.549 35.8676V37.6187C233.559 37.786 233.505 37.928 233.386 38.0447C233.263 38.1597 233.117 38.2144 232.949 38.2095L230.736 38.1997ZM230.833 52.9517C230.672 52.9565 230.534 52.9019 230.42 52.7876C230.306 52.6726 230.251 52.5347 230.255 52.3731V40.8818C230.251 40.7202 230.306 40.5831 230.42 40.4689C230.534 40.3547 230.672 40.3 230.833 40.3041H232.85C233.016 40.2951 233.158 40.3498 233.276 40.4689C233.386 40.584 233.442 40.721 233.439 40.8818V52.3682C233.442 52.529 233.387 52.6669 233.276 52.7827C233.158 52.9019 233.016 52.9565 232.85 52.9468L230.833 52.9517Z" fill="white"/>
<path d="M238.464 52.9534C238.301 52.9583 238.164 52.9036 238.05 52.7893C237.936 52.6743 237.881 52.5364 237.885 52.3748V40.8884C237.881 40.7268 237.936 40.5881 238.05 40.4739C238.164 40.3596 238.301 40.305 238.464 40.309H240.457C240.618 40.305 240.756 40.3596 240.871 40.4739C240.984 40.5881 241.039 40.7268 241.035 40.8884V41.8847C241.485 41.3413 242.024 40.9072 242.651 40.584C243.423 40.203 244.238 40.0267 245.098 40.0545C245.55 40.043 245.995 40.0944 246.433 40.2079C246.871 40.3221 247.285 40.4935 247.674 40.7236C248.043 40.9488 248.37 41.2221 248.659 41.5428C248.946 41.8643 249.183 42.2201 249.368 42.6101C249.792 43.537 249.99 44.5105 249.962 45.5305V52.3683C249.967 52.5299 249.912 52.6678 249.798 52.7828C249.684 52.8971 249.547 52.9517 249.386 52.9468H247.232C247.072 52.9517 246.934 52.8971 246.82 52.7828C246.706 52.6686 246.651 52.5299 246.656 52.3683V45.6749C246.679 45.2759 246.631 44.8858 246.512 44.504C246.393 44.1229 246.21 43.7745 245.964 43.4603C245.836 43.3216 245.695 43.2 245.541 43.0931C245.386 42.9871 245.221 42.8989 245.047 42.8304C244.872 42.761 244.692 42.7113 244.507 42.6827C244.321 42.6542 244.136 42.646 243.948 42.659C243.57 42.6411 243.205 42.7023 242.853 42.8426C242.502 42.9822 242.194 43.1886 241.931 43.462C241.666 43.768 241.469 44.1123 241.338 44.4958C241.208 44.8785 241.155 45.2726 241.178 45.6765V52.3699C241.182 52.5315 241.128 52.6694 241.014 52.7844C240.899 52.8987 240.761 52.9534 240.6 52.9485L238.464 52.9534Z" fill="white"/>
<path d="M259.973 58.3061C258.972 58.3379 258 58.1845 257.057 57.8443C256.382 57.5921 255.782 57.2184 255.258 56.7248C254.864 56.3494 254.552 55.9153 254.323 55.4217C254.167 55.1018 254.066 54.7648 254.019 54.4123C254.01 54.3323 254.021 54.2548 254.05 54.1797C254.079 54.1047 254.123 54.0402 254.182 53.9864C254.298 53.864 254.44 53.8028 254.608 53.8036H256.723C256.864 53.7962 256.994 53.833 257.111 53.9121C257.231 54.0223 257.313 54.1553 257.353 54.3136C257.466 54.551 257.595 54.7787 257.743 54.9957C257.936 55.2674 258.183 55.4739 258.484 55.6159C258.921 55.8084 259.379 55.8933 259.856 55.8713C260.392 55.8859 260.911 55.7978 261.412 55.6044C261.62 55.5171 261.808 55.3955 261.972 55.2405C262.138 55.0855 262.272 54.906 262.373 54.7036C262.62 54.1447 262.73 53.5604 262.701 52.9501V51.2961C262.288 51.7906 261.79 52.1741 261.206 52.4474C260.49 52.7632 259.74 52.9093 258.958 52.8848C258.174 52.9028 257.421 52.7591 256.698 52.454C256.078 52.1814 255.552 51.7841 255.119 51.2618C254.68 50.7217 254.361 50.1187 254.16 49.4528C253.931 48.6989 253.805 47.9278 253.782 47.1404C253.767 46.7022 253.767 46.2632 253.782 45.825C253.807 45.0547 253.928 44.3008 254.147 43.5623C254.345 42.8859 254.665 42.2739 255.107 41.7247C255.542 41.1911 256.072 40.7815 256.698 40.4967C257.419 40.185 258.173 40.0389 258.958 40.0593C259.781 40.0324 260.559 40.2062 261.292 40.5824C261.899 40.9096 262.418 41.3437 262.847 41.8847V40.9112C262.84 40.7415 262.894 40.5963 263.011 40.4739C263.125 40.3596 263.263 40.305 263.423 40.309H265.394C265.555 40.305 265.692 40.3596 265.806 40.4739C265.923 40.5963 265.978 40.7423 265.971 40.9112L265.995 52.6408C266.023 53.7008 265.804 54.7069 265.338 55.6591C265.119 56.0801 264.841 56.4579 264.504 56.7925C264.166 57.1262 263.786 57.4012 263.363 57.6158C262.289 58.1233 261.158 58.3551 259.972 58.3094M259.85 50.3031C260.134 50.3169 260.413 50.2859 260.687 50.2117C260.961 50.1366 261.217 50.0216 261.454 49.8649C261.865 49.5687 262.165 49.1852 262.352 48.7144C262.545 48.2542 262.659 47.776 262.693 47.2783C262.709 47.0677 262.717 46.8001 262.717 46.4762C262.717 46.1522 262.709 45.8919 262.693 45.6969C262.661 45.1943 262.548 44.7112 262.352 44.2477C262.16 43.7802 261.861 43.3967 261.454 43.0964C261.218 42.9381 260.963 42.8198 260.689 42.7439C260.415 42.668 260.136 42.637 259.851 42.6509C259.567 42.637 259.287 42.6688 259.013 42.7463C258.738 42.823 258.483 42.9414 258.247 43.1013C257.836 43.4048 257.549 43.7981 257.385 44.282C257.207 44.8034 257.106 45.3387 257.081 45.8887C257.049 46.286 257.049 46.6834 257.081 47.0808C257.109 47.6267 257.21 48.1579 257.385 48.6744C257.544 49.1623 257.832 49.5556 258.247 49.8551C258.485 50.0118 258.74 50.1268 259.015 50.2019C259.289 50.2761 259.568 50.3063 259.851 50.2925" fill="white"/>
</svg>
