<svg width="646" height="187" viewBox="0 0 646 187" fill="none" xmlns="http://www.w3.org/2000/svg">
<path fill-rule="evenodd" clip-rule="evenodd" d="M346.779 115.372H371.294V182.281H392.515V115.372H416.914V98.0557H346.779V115.372Z" fill="white"/>
<path fill-rule="evenodd" clip-rule="evenodd" d="M308.18 94.0752C293.883 94.0752 280.76 99.918 271.223 110.518C261.941 120.835 256.828 134.683 256.828 149.511C256.828 155.124 257.596 160.252 259.115 164.753C260.643 169.299 262.939 173.226 265.942 176.421C271.982 182.855 280.901 186.262 291.719 186.262C302.537 186.262 313.284 182.864 321.364 176.448C328.95 170.428 334.549 161.867 337.56 151.7L338.443 148.716H315.068L314.547 150.323C312.904 155.362 310.538 159.272 307.509 161.947C303.879 165.142 299.287 166.695 293.485 166.695C288.328 166.695 284.751 165.256 282.535 162.282C280.389 159.413 279.347 155.001 279.347 148.805C279.347 139.599 281.996 130.623 286.615 124.189C291.569 117.287 298.333 113.642 306.184 113.642C310.679 113.642 314.008 114.94 316.075 117.508C318.044 119.953 318.962 123.58 318.795 128.276L318.706 130.676H341.684L341.887 128.576C342.85 118.682 340.377 110.191 334.717 104.013C328.756 97.5085 319.58 94.0664 308.18 94.0664V94.0752Z" fill="white"/>
<path fill-rule="evenodd" clip-rule="evenodd" d="M208.144 147.648H244.916V130.332H208.144V115.372H250.807V98.0557H186.924V182.281H251.513V164.965H208.144V147.648Z" fill="white"/>
<path fill-rule="evenodd" clip-rule="evenodd" d="M164.088 143.412V143.174C174.58 140.817 181.176 133.871 181.176 122.089C181.176 106.776 169.864 98.0557 151.125 98.0557H111.403V182.281H132.615V152.953H145.817C163.85 152.953 156.194 178.751 160.318 182.281H182.36V181.108C177.529 179.695 185.185 147.066 164.088 143.412ZM147.001 135.636H132.624V115.372H147.001C155.487 115.372 159.964 118.435 159.964 125.504C159.964 132.574 155.487 135.636 147.001 135.636Z" fill="white"/>
<path d="M101.52 98.0557H80.2998V182.281H101.52V98.0557Z" fill="white"/>
<path fill-rule="evenodd" clip-rule="evenodd" d="M602.522 70.9864V53.67H639.303V36.3535H602.522V21.3936H645.193V4.07715H581.311V88.3029H645.9V70.9864H602.522Z" fill="white"/>
<path fill-rule="evenodd" clip-rule="evenodd" d="M439.671 4.18604L407.615 88.4118H430.364L435.786 70.857H464.663L470.085 88.4118H493.301L461.007 4.18604H439.671ZM440.616 54.7232L450.163 23.6207H450.401L459.947 54.7232H440.616Z" fill="white"/>
<path fill-rule="evenodd" clip-rule="evenodd" d="M286.732 88.2597H307.953V21.3504H332.344V4.03394H262.218V21.3504H286.732V88.2597Z" fill="white"/>
<path fill-rule="evenodd" clip-rule="evenodd" d="M208.24 58.9743H221.442C239.475 58.9743 231.819 84.7725 235.943 88.3029H257.985V87.129C253.154 85.7169 260.811 53.0875 239.713 49.4335V49.1952C250.205 46.8387 256.801 39.8927 256.801 28.1101C256.801 12.7972 245.489 4.07715 226.741 4.07715H187.02V88.3029H208.231V58.9743H208.24ZM208.24 21.3936H222.617C231.103 21.3936 235.581 24.4562 235.581 31.5257C235.581 38.5953 231.103 41.6579 222.617 41.6579H208.24V21.3936Z" fill="white"/>
<path fill-rule="evenodd" clip-rule="evenodd" d="M167.745 75.7352C176.629 65.6295 181.53 51.9582 181.53 37.2454C181.53 26.0629 178.024 16.6898 171.383 10.1498C164.645 3.51271 154.86 0 143.089 0C128.465 0 115.289 5.80745 105.981 16.3633C97.0799 26.4601 92.1787 40.1756 92.1787 54.9943C92.1787 66.1767 95.6581 75.5498 102.246 82.081C108.94 88.7269 118.671 92.2308 130.381 92.2308C145.12 92.2308 158.384 86.3704 167.736 75.7352H167.745ZM119.042 67.8007C116.446 64.7558 115.068 60.2016 115.068 54.6412C115.068 45.5947 117.762 36.707 122.442 30.2641C125.983 25.3922 132.342 19.5847 142.497 19.5847C147.849 19.5847 151.946 21.2175 154.675 24.439C157.262 27.4927 158.64 32.0469 158.64 37.5984C158.64 46.6361 155.982 55.515 151.355 61.9403C147.84 66.8298 141.508 72.6549 131.317 72.6549C125.913 72.6549 121.78 71.0222 119.033 67.8007H119.042Z" fill="white"/>
<path fill-rule="evenodd" clip-rule="evenodd" d="M20.0373 35.8858H20.2757L35.9506 88.3029H50.8041L66.479 35.8858H66.7086V88.3029H86.7547V4.07715H60.8184L43.4922 57.8005H43.2537L25.9275 4.07715H0V88.3029H20.0373V35.8858Z" fill="white"/>
<path fill-rule="evenodd" clip-rule="evenodd" d="M37.3635 97.9414H0V182.167H38.5469C62.0017 182.167 74.9655 167.207 74.9655 140.112C74.9655 113.016 60.8184 97.9414 37.3635 97.9414ZM34.7672 164.859H21.2118V115.267H34.7672C47.9694 115.267 53.268 124.807 53.268 140.12C53.268 155.433 47.9606 164.859 34.7672 164.859Z" fill="white"/>
<path fill-rule="evenodd" clip-rule="evenodd" d="M336.164 80.2637C341.719 86.5301 349.905 89.9546 360.281 89.9546C370.657 89.9546 379.02 86.5301 385.096 80.7933L385.334 88.2335H402.025L411.279 40.3176H369.642L366.233 58.2872H384.61C381.546 65.6039 373.633 70.7229 364.502 70.7229C358.78 70.7229 355.336 68.9842 353.252 66.4159C351.097 63.7416 350.046 59.7435 350.046 54.5627C350.046 33.9012 361.376 19.312 375.938 19.312C381.343 19.312 384.442 20.7859 386.235 22.6746C388.063 24.6075 388.92 27.3524 389.017 30.6268L389.087 32.9039H411.659L411.792 30.6886C412.277 22.5334 409.858 14.8019 404.171 9.11802C398.51 3.46061 389.847 0.0891113 378.349 0.0891113C349.26 0.0891113 327.96 24.6958 327.96 55.1363C327.96 65.295 330.636 74.0326 336.164 80.2637Z" fill="white"/>
<path fill-rule="evenodd" clip-rule="evenodd" d="M541.484 0.0882085C512.395 0.0882085 491.095 24.6949 491.095 55.1354C491.095 65.2941 493.771 74.0317 499.299 80.2628C504.853 86.5292 513.04 89.9537 523.416 89.9537C533.792 89.9537 542.155 86.5292 548.231 80.7924L548.469 88.2326H565.159L574.414 40.3167H532.777L529.368 58.2863H547.745C544.681 65.603 536.768 70.722 527.637 70.722C521.915 70.722 518.471 68.9833 516.386 66.415C514.232 63.7407 513.181 59.7426 513.181 54.5618C513.181 33.9003 524.511 19.3111 539.073 19.3111C544.478 19.3111 547.577 20.785 549.37 22.6737C551.198 24.6066 552.054 27.3515 552.152 30.6259L552.222 32.903H574.794L574.926 30.6877C575.412 22.5325 572.992 14.801 567.305 9.11712C561.627 3.44206 552.955 0.0705566 541.466 0.0705566L541.484 0.0882085Z" fill="white"/>
</svg>
